{
    "asset" : {
        "generator" : "Khronos glTF Blender I/O v1.1.46",
        "version" : "2.0"
    },
    "scene" : 0,
    "scenes" : [
        {
            "name" : "Scene",
            "nodes" : [
                0,
                1,
                2
            ]
        }
    ],
    "nodes" : [
        {
            "mesh" : 0,
            "name" : "Suzanne",
            "translation" : [
                0,
                1.7966420650482178,
                0.08212471008300781
            ]
        },
        {
            "mesh" : 1,
            "name" : "Cube",
            "translation" : [
                0,
                0.5,
                0
            ]
        },
        {
            "mesh" : 2,
            "name" : "Icosphere",
            "translation" : [
                0,
                1.5,
                0
            ]
        }
    ],
    "materials" : [
        {
            "emissiveFactor" : [
                0,
                0,
                0
            ],
            "name" : "scene_mat",
            "pbrMetallicRoughness" : {
                "baseColorTexture" : {
                    "index" : 0,
                    "texCoord" : 0
                },
                "metallicFactor" : 0,
                "roughnessFactor" : 0.5
            }
        }
    ],
    "meshes" : [
        {
            "name" : "Suzanne",
            "primitives" : [
                {
                    "attributes" : {
                        "POSITION" : 0,
                        "NORMAL" : 1,
                        "TEXCOORD_0" : 2
                    },
                    "indices" : 3,
                    "material" : 0
                }
            ]
        },
        {
            "name" : "Cube.001",
            "primitives" : [
                {
                    "attributes" : {
                        "POSITION" : 4,
                        "NORMAL" : 5,
                        "TEXCOORD_0" : 6
                    },
                    "indices" : 7,
                    "material" : 0
                }
            ]
        },
        {
            "name" : "Icosphere",
            "primitives" : [
                {
                    "attributes" : {
                        "POSITION" : 8,
                        "NORMAL" : 9,
                        "TEXCOORD_0" : 10
                    },
                    "indices" : 11,
                    "material" : 0
                }
            ]
        }
    ],
    "textures" : [
        {
            "source" : 0
        }
    ],
    "images" : [
        {
            "mimeType" : "image/png",
            "name" : "scene_atlas",
            "uri" : "scene_atlas.png"
        }
    ],
    "accessors" : [
        {
            "bufferView" : 0,
            "componentType" : 5126,
            "count" : 1968,
            "max" : [
                0.5324246883392334,
                0.4249539375305176,
                0.5310875177383423
            ],
            "min" : [
                -0.5324246883392334,
                -0.3417375087738037,
                -0.13216137886047363
            ],
            "type" : "VEC3"
        },
        {
            "bufferView" : 1,
            "componentType" : 5126,
            "count" : 1968,
            "type" : "VEC3"
        },
        {
            "bufferView" : 2,
            "componentType" : 5126,
            "count" : 1968,
            "type" : "VEC2"
        },
        {
            "bufferView" : 3,
            "componentType" : 5123,
            "count" : 2904,
            "type" : "SCALAR"
        },
        {
            "bufferView" : 4,
            "componentType" : 5126,
            "count" : 24,
            "max" : [
                0.2641475796699524,
                0.5,
                0.2641475796699524
            ],
            "min" : [
                -0.2641475796699524,
                -0.5,
                -0.2641475796699524
            ],
            "type" : "VEC3"
        },
        {
            "bufferView" : 5,
            "componentType" : 5126,
            "count" : 24,
            "type" : "VEC3"
        },
        {
            "bufferView" : 6,
            "componentType" : 5126,
            "count" : 24,
            "type" : "VEC2"
        },
        {
            "bufferView" : 7,
            "componentType" : 5123,
            "count" : 36,
            "type" : "SCALAR"
        },
        {
            "bufferView" : 8,
            "componentType" : 5126,
            "count" : 240,
            "max" : [
                0.47552892565727234,
                0.5,
                0.4999999701976776
            ],
            "min" : [
                -0.47552892565727234,
                -0.5,
                -0.4999999701976776
            ],
            "type" : "VEC3"
        },
        {
            "bufferView" : 9,
            "componentType" : 5126,
            "count" : 240,
            "type" : "VEC3"
        },
        {
            "bufferView" : 10,
            "componentType" : 5126,
            "count" : 240,
            "type" : "VEC2"
        },
        {
            "bufferView" : 11,
            "componentType" : 5123,
            "count" : 240,
            "type" : "SCALAR"
        }
    ],
    "bufferViews" : [
        {
            "buffer" : 0,
            "byteLength" : 23616,
            "byteOffset" : 0
        },
        {
            "buffer" : 0,
            "byteLength" : 23616,
            "byteOffset" : 23616
        },
        {
            "buffer" : 0,
            "byteLength" : 15744,
            "byteOffset" : 47232
        },
        {
            "buffer" : 0,
            "byteLength" : 5808,
            "byteOffset" : 62976
        },
        {
            "buffer" : 0,
            "byteLength" : 288,
            "byteOffset" : 68784
        },
        {
            "buffer" : 0,
            "byteLength" : 288,
            "byteOffset" : 69072
        },
        {
            "buffer" : 0,
            "byteLength" : 192,
            "byteOffset" : 69360
        },
        {
            "buffer" : 0,
            "byteLength" : 72,
            "byteOffset" : 69552
        },
        {
            "buffer" : 0,
            "byteLength" : 2880,
            "byteOffset" : 69624
        },
        {
            "buffer" : 0,
            "byteLength" : 2880,
            "byteOffset" : 72504
        },
        {
            "buffer" : 0,
            "byteLength" : 1920,
            "byteOffset" : 75384
        },
        {
            "buffer" : 0,
            "byteLength" : 480,
            "byteOffset" : 77304
        }
    ],
    "buffers" : [
        {
            "byteLength" : 77784,
            "uri" : "orientation.bin"
        }
    ]
}
