{
    "asset" : {
        "generator" : "Khronos glTF Blender I/O v1.1.46",
        "version" : "2.0"
    },
    "scene" : 0,
    "scenes" : [
        {
            "name" : "Scene",
            "nodes" : [
                0,
                1,
                2,
                3,
                4
            ]
        }
    ],
    "nodes" : [
        {
            "mesh" : 0,
            "name" : "Plane"
        },
        {
            "mesh" : 1,
            "name" : "Suzanne",
            "translation" : [
                0,
                3.9697840213775635,
                -10.056276321411133
            ]
        },
        {
            "mesh" : 2,
            "name" : "Cube",
            "translation" : [
                0,
                0.5,
                0
            ]
        },
        {
            "mesh" : 3,
            "name" : "Icosphere",
            "translation" : [
                0,
                1.5,
                0
            ]
        },
        {
            "mesh" : 4,
            "name" : "Cube.001",
            "translation" : [
                1,
                0.5,
                -2
            ]
        }
    ],
    "materials" : [
        {
            "emissiveFactor" : [
                0,
                0,
                0
            ],
            "name" : "scene_mat",
            "pbrMetallicRoughness" : {
                "baseColorTexture" : {
                    "index" : 0,
                    "texCoord" : 0
                },
                "metallicFactor" : 0,
                "roughnessFactor" : 0.5
            }
        }
    ],
    "meshes" : [
        {
            "name" : "Plane",
            "primitives" : [
                {
                    "attributes" : {
                        "POSITION" : 0,
                        "NORMAL" : 1,
                        "TEXCOORD_0" : 2
                    },
                    "indices" : 3,
                    "material" : 0
                }
            ]
        },
        {
            "name" : "Suzanne",
            "primitives" : [
                {
                    "attributes" : {
                        "POSITION" : 4,
                        "NORMAL" : 5,
                        "TEXCOORD_0" : 6
                    },
                    "indices" : 7,
                    "material" : 0
                }
            ]
        },
        {
            "name" : "Cube.001",
            "primitives" : [
                {
                    "attributes" : {
                        "POSITION" : 8,
                        "NORMAL" : 9,
                        "TEXCOORD_0" : 10
                    },
                    "indices" : 11,
                    "material" : 0
                }
            ]
        },
        {
            "name" : "Icosphere",
            "primitives" : [
                {
                    "attributes" : {
                        "POSITION" : 12,
                        "NORMAL" : 13,
                        "TEXCOORD_0" : 14
                    },
                    "indices" : 15,
                    "material" : 0
                }
            ]
        },
        {
            "name" : "Cube.002",
            "primitives" : [
                {
                    "attributes" : {
                        "POSITION" : 16,
                        "NORMAL" : 17,
                        "TEXCOORD_0" : 18
                    },
                    "indices" : 11,
                    "material" : 0
                }
            ]
        }
    ],
    "textures" : [
        {
            "source" : 0
        }
    ],
    "images" : [
        {
            "mimeType" : "image/png",
            "name" : "scene_atlas",
            "uri" : "scene_atlas.png"
        }
    ],
    "accessors" : [
        {
            "bufferView" : 0,
            "componentType" : 5126,
            "count" : 4,
            "max" : [
                20,
                0,
                20
            ],
            "min" : [
                -20,
                0,
                -20
            ],
            "type" : "VEC3"
        },
        {
            "bufferView" : 1,
            "componentType" : 5126,
            "count" : 4,
            "type" : "VEC3"
        },
        {
            "bufferView" : 2,
            "componentType" : 5126,
            "count" : 4,
            "type" : "VEC2"
        },
        {
            "bufferView" : 3,
            "componentType" : 5123,
            "count" : 6,
            "type" : "SCALAR"
        },
        {
            "bufferView" : 4,
            "componentType" : 5126,
            "count" : 1968,
            "max" : [
                4.156937599182129,
                2.854121446609497,
                1.9227652549743652
            ],
            "min" : [
                -4.156937599182129,
                -3.131868600845337,
                -3.25559139251709
            ],
            "type" : "VEC3"
        },
        {
            "bufferView" : 5,
            "componentType" : 5126,
            "count" : 1968,
            "type" : "VEC3"
        },
        {
            "bufferView" : 6,
            "componentType" : 5126,
            "count" : 1968,
            "type" : "VEC2"
        },
        {
            "bufferView" : 7,
            "componentType" : 5123,
            "count" : 2904,
            "type" : "SCALAR"
        },
        {
            "bufferView" : 8,
            "componentType" : 5126,
            "count" : 24,
            "max" : [
                0.2641475796699524,
                0.5,
                0.2641475796699524
            ],
            "min" : [
                -0.2641475796699524,
                -0.5,
                -0.2641475796699524
            ],
            "type" : "VEC3"
        },
        {
            "bufferView" : 9,
            "componentType" : 5126,
            "count" : 24,
            "type" : "VEC3"
        },
        {
            "bufferView" : 10,
            "componentType" : 5126,
            "count" : 24,
            "type" : "VEC2"
        },
        {
            "bufferView" : 11,
            "componentType" : 5123,
            "count" : 36,
            "type" : "SCALAR"
        },
        {
            "bufferView" : 12,
            "componentType" : 5126,
            "count" : 240,
            "max" : [
                0.47552892565727234,
                0.5,
                0.4999999701976776
            ],
            "min" : [
                -0.47552892565727234,
                -0.5,
                -0.4999999701976776
            ],
            "type" : "VEC3"
        },
        {
            "bufferView" : 13,
            "componentType" : 5126,
            "count" : 240,
            "type" : "VEC3"
        },
        {
            "bufferView" : 14,
            "componentType" : 5126,
            "count" : 240,
            "type" : "VEC2"
        },
        {
            "bufferView" : 15,
            "componentType" : 5123,
            "count" : 240,
            "type" : "SCALAR"
        },
        {
            "bufferView" : 16,
            "componentType" : 5126,
            "count" : 24,
            "max" : [
                0.5,
                0.5,
                0.5
            ],
            "min" : [
                -0.5,
                -0.5,
                -0.5
            ],
            "type" : "VEC3"
        },
        {
            "bufferView" : 17,
            "componentType" : 5126,
            "count" : 24,
            "type" : "VEC3"
        },
        {
            "bufferView" : 18,
            "componentType" : 5126,
            "count" : 24,
            "type" : "VEC2"
        }
    ],
    "bufferViews" : [
        {
            "buffer" : 0,
            "byteLength" : 48,
            "byteOffset" : 0
        },
        {
            "buffer" : 0,
            "byteLength" : 48,
            "byteOffset" : 48
        },
        {
            "buffer" : 0,
            "byteLength" : 32,
            "byteOffset" : 96
        },
        {
            "buffer" : 0,
            "byteLength" : 12,
            "byteOffset" : 128
        },
        {
            "buffer" : 0,
            "byteLength" : 23616,
            "byteOffset" : 140
        },
        {
            "buffer" : 0,
            "byteLength" : 23616,
            "byteOffset" : 23756
        },
        {
            "buffer" : 0,
            "byteLength" : 15744,
            "byteOffset" : 47372
        },
        {
            "buffer" : 0,
            "byteLength" : 5808,
            "byteOffset" : 63116
        },
        {
            "buffer" : 0,
            "byteLength" : 288,
            "byteOffset" : 68924
        },
        {
            "buffer" : 0,
            "byteLength" : 288,
            "byteOffset" : 69212
        },
        {
            "buffer" : 0,
            "byteLength" : 192,
            "byteOffset" : 69500
        },
        {
            "buffer" : 0,
            "byteLength" : 72,
            "byteOffset" : 69692
        },
        {
            "buffer" : 0,
            "byteLength" : 2880,
            "byteOffset" : 69764
        },
        {
            "buffer" : 0,
            "byteLength" : 2880,
            "byteOffset" : 72644
        },
        {
            "buffer" : 0,
            "byteLength" : 1920,
            "byteOffset" : 75524
        },
        {
            "buffer" : 0,
            "byteLength" : 480,
            "byteOffset" : 77444
        },
        {
            "buffer" : 0,
            "byteLength" : 288,
            "byteOffset" : 77924
        },
        {
            "buffer" : 0,
            "byteLength" : 288,
            "byteOffset" : 78212
        },
        {
            "buffer" : 0,
            "byteLength" : 192,
            "byteOffset" : 78500
        }
    ],
    "buffers" : [
        {
            "byteLength" : 78692,
            "uri" : "test_scene.bin"
        }
    ]
}
